<?xml version='1.0' encoding='us-ascii'?>
<svg height="338.30mm" viewBox="0.0 0.0 222.90 338.30" width="222.90mm" xmlns="http://www.w3.org/2000/svg" xmlns:cc="http://creativecommons.org/ns#" xmlns:dc="http://purl.org/dc/elements/1.1/" xmlns:inkscape="http://www.inkscape.org/namespaces/inkscape" xmlns:rdf="http://www.w3.org/1999/02/22-rdf-syntax-ns#" xmlns:svg="http://www.w3.org/2000/svg" xmlns:xlink="http://www.w3.org/1999/xlink">
<!--
ClosedBox - Fully closed box

Created with Boxes.py (https://festi.info/boxes.py)
Creation date: 2021-01-27 14:12:02
Command line (remove spaces between dashes): boxes ClosedBox - -FingerJoint_angle=90.0 - -FingerJoint_style=rectangular - -FingerJoint_surroundingspaces=2.0 - -FingerJoint_edge_width=1.0 - -FingerJoint_finger=2.0 - -FingerJoint_play=0.0 - -FingerJoint_space=2.0 - -FingerJoint_width=1.0 - -x=100.0 - -y=100.0 - -h=100.0 - -outside=0 - -outside=1 - -thickness=5 - -format=svg - -tabs=0.0 - -debug=0 - -reference=100 - -burn=0.1
Url: http://www.festi.info/ClosedBox?FingerJoint_angle=90.0&FingerJoint_style=rectangular&FingerJoint_surroundingspaces=2.0&FingerJoint_edge_width=1.0&FingerJoint_finger=2.0&FingerJoint_play=0.0&FingerJoint_space=2.0&FingerJoint_width=1.0&x=100.0&y=100.0&h=100.0&outside=0&outside=1&thickness=5&format=svg&tabs=0.0&debug=0&reference=100&burn=0.1&render=1
SettingsUrl: http://www.festi.info/ClosedBox?FingerJoint_angle=90.0&FingerJoint_style=rectangular&FingerJoint_surroundingspaces=2.0&FingerJoint_edge_width=1.0&FingerJoint_finger=2.0&FingerJoint_play=0.0&FingerJoint_space=2.0&FingerJoint_width=1.0&x=100.0&y=100.0&h=100.0&outside=0&outside=1&thickness=5&format=svg&tabs=0.0&debug=0&reference=100&burn=0.1
-->
<title>ClosedBox</title>
<metadata>
<rdf:RDF><cc:Work>
<dc:title>Box - ClosedBox</dc:title>
<dc:date>2021-01-27 14:12:02</dc:date>
<dc:source>http://www.festi.info/ClosedBox?FingerJoint_angle=90.0&amp;FingerJoint_style=rectangular&amp;FingerJoint_surroundingspaces=2.0&amp;FingerJoint_edge_width=1.0&amp;FingerJoint_finger=2.0&amp;FingerJoint_play=0.0&amp;FingerJoint_space=2.0&amp;FingerJoint_width=1.0&amp;x=100.0&amp;y=100.0&amp;h=100.0&amp;outside=0&amp;outside=1&amp;thickness=5&amp;format=svg&amp;tabs=0.0&amp;debug=0&amp;reference=100&amp;burn=0.1&amp;render=1</dc:source>
<dc:description>Fully closed box

Created with Boxes.py (https://festi.info/boxes.py)
Command line: boxes ClosedBox --FingerJoint_angle=90.0 --FingerJoint_style=rectangular --FingerJoint_surroundingspaces=2.0 --FingerJoint_edge_width=1.0 --FingerJoint_finger=2.0 --FingerJoint_play=0.0 --FingerJoint_space=2.0 --FingerJoint_width=1.0 --x=100.0 --y=100.0 --h=100.0 --outside=0 --outside=1 --thickness=5 --format=svg --tabs=0.0 --debug=0 --reference=100 --burn=0.1
Url: http://www.festi.info/ClosedBox?FingerJoint_angle=90.0&amp;FingerJoint_style=rectangular&amp;FingerJoint_surroundingspaces=2.0&amp;FingerJoint_edge_width=1.0&amp;FingerJoint_finger=2.0&amp;FingerJoint_play=0.0&amp;FingerJoint_space=2.0&amp;FingerJoint_width=1.0&amp;x=100.0&amp;y=100.0&amp;h=100.0&amp;outside=0&amp;outside=1&amp;thickness=5&amp;format=svg&amp;tabs=0.0&amp;debug=0&amp;reference=100&amp;burn=0.1&amp;render=1
SettingsUrl: http://www.festi.info/ClosedBox?FingerJoint_angle=90.0&amp;FingerJoint_style=rectangular&amp;FingerJoint_surroundingspaces=2.0&amp;FingerJoint_edge_width=1.0&amp;FingerJoint_finger=2.0&amp;FingerJoint_play=0.0&amp;FingerJoint_space=2.0&amp;FingerJoint_width=1.0&amp;x=100.0&amp;y=100.0&amp;h=100.0&amp;outside=0&amp;outside=1&amp;thickness=5&amp;format=svg&amp;tabs=0.0&amp;debug=0&amp;reference=100&amp;burn=0.1
</dc:description>
</cc:Work></rdf:RDF></metadata>
<g id="p-0" style="fill:none;stroke-linecap:round;stroke-linejoin:round;">
  <path d="M 10.100 328.300 H 110.100 V 318.300 H 10.100 V 328.300 Z" stroke="rgb(0,0,0)" stroke-width="0.20" />
  <text alignment-baseline="hanging" font-size="10px" style="font-family: sans-serif ; font-weight: normal; font-style: normal; fill: rgb(0,0,0)" text-anchor="middle" transform="matrix( 1.000 0.000 0.000 1.000 60.100 318.300 )">100mm</text>
</g>
<g id="p-1" style="fill:none;stroke-linecap:round;stroke-linejoin:round;">
  <path d="M 15.100 315.600 H 25.100 C 25.155 315.600 25.200 315.555 25.200 315.500 V 310.600 C 25.200 310.500 25.100 310.600 25.200 310.600 H 35.000 C 35.100 310.600 35.000 310.500 35.000 310.600 V 315.500 C 35.000 315.555 35.045 315.600 35.100 315.600 H 45.100 C 45.155 315.600 45.200 315.555 45.200 315.500 V 310.600 C 45.200 310.500 45.100 310.600 45.200 310.600 H 55.000 C 55.100 310.600 55.000 310.500 55.000 310.600 V 315.500 C 55.000 315.555 55.045 315.600 55.100 315.600 H 65.100 C 65.155 315.600 65.200 315.555 65.200 315.500 V 310.600 C 65.200 310.500 65.100 310.600 65.200 310.600 H 75.000 C 75.100 310.600 75.000 310.500 75.000 310.600 V 315.500 C 75.000 315.555 75.045 315.600 75.100 315.600 H 85.100 C 85.155 315.600 85.200 315.555 85.200 315.500 V 310.600 C 85.200 310.500 85.100 310.600 85.200 310.600 H 95.000 C 95.100 310.600 95.000 310.500 95.000 310.600 V 315.500 C 95.000 315.555 95.045 315.600 95.100 315.600 H 105.100 H 110.100 C 110.155 315.600 110.200 315.555 110.200 315.500 V 310.500 V 300.500 C 110.200 300.445 110.155 300.400 110.100 300.400 H 105.200 C 105.100 300.400 105.200 300.500 105.200 300.400 V 290.600 C 105.200 290.500 105.100 290.600 105.200 290.600 H 110.100 C 110.155 290.600 110.200 290.555 110.200 290.500 V 280.500 C 110.200 280.445 110.155 280.400 110.100 280.400 H 105.200 C 105.100 280.400 105.200 280.500 105.200 280.400 V 270.600 C 105.200 270.500 105.100 270.600 105.200 270.600 H 110.100 C 110.155 270.600 110.200 270.555 110.200 270.500 V 260.500 C 110.200 260.445 110.155 260.400 110.100 260.400 H 105.200 C 105.100 260.400 105.200 260.500 105.200 260.400 V 250.600 C 105.200 250.500 105.100 250.600 105.200 250.600 H 110.100 C 110.155 250.600 110.200 250.555 110.200 250.500 V 240.500 C 110.200 240.445 110.155 240.400 110.100 240.400 H 105.200 C 105.100 240.400 105.200 240.500 105.200 240.400 V 230.600 C 105.200 230.500 105.100 230.600 105.200 230.600 H 110.100 C 110.155 230.600 110.200 230.555 110.200 230.500 V 220.500 V 215.500 C 110.200 215.445 110.155 215.400 110.100 215.400 H 105.100 H 95.100 C 95.045 215.400 95.000 215.445 95.000 215.500 V 220.400 C 95.000 220.500 95.100 220.400 95.000 220.400 H 85.200 C 85.100 220.400 85.200 220.500 85.200 220.400 V 215.500 C 85.200 215.445 85.155 215.400 85.100 215.400 H 75.100 C 75.045 215.400 75.000 215.445 75.000 215.500 V 220.400 C 75.000 220.500 75.100 220.400 75.000 220.400 H 65.200 C 65.100 220.400 65.200 220.500 65.200 220.400 V 215.500 C 65.200 215.445 65.155 215.400 65.100 215.400 H 55.100 C 55.045 215.400 55.000 215.445 55.000 215.500 V 220.400 C 55.000 220.500 55.100 220.400 55.000 220.400 H 45.200 C 45.100 220.400 45.200 220.500 45.200 220.400 V 215.500 C 45.200 215.445 45.155 215.400 45.100 215.400 H 35.100 C 35.045 215.400 35.000 215.445 35.000 215.500 V 220.400 C 35.000 220.500 35.100 220.400 35.000 220.400 H 25.200 C 25.100 220.400 25.200 220.500 25.200 220.400 V 215.500 C 25.200 215.445 25.155 215.400 25.100 215.400 H 15.100 H 10.100 C 10.045 215.400 10.000 215.445 10.000 215.500 V 220.500 V 230.500 C 10.000 230.555 10.045 230.600 10.100 230.600 H 15.000 C 15.100 230.600 15.000 230.500 15.000 230.600 V 240.400 C 15.000 240.500 15.100 240.400 15.000 240.400 H 10.100 C 10.045 240.400 10.000 240.445 10.000 240.500 V 250.500 C 10.000 250.555 10.045 250.600 10.100 250.600 H 15.000 C 15.100 250.600 15.000 250.500 15.000 250.600 V 260.400 C 15.000 260.500 15.100 260.400 15.000 260.400 H 10.100 C 10.045 260.400 10.000 260.445 10.000 260.500 V 270.500 C 10.000 270.555 10.045 270.600 10.100 270.600 H 15.000 C 15.100 270.600 15.000 270.500 15.000 270.600 V 280.400 C 15.000 280.500 15.100 280.400 15.000 280.400 H 10.100 C 10.045 280.400 10.000 280.445 10.000 280.500 V 290.500 C 10.000 290.555 10.045 290.600 10.100 290.600 H 15.000 C 15.100 290.600 15.000 290.500 15.000 290.600 V 300.400 C 15.000 300.500 15.100 300.400 15.000 300.400 H 10.100 C 10.045 300.400 10.000 300.445 10.000 300.500 V 310.500 V 315.500 C 10.000 315.555 10.045 315.600 10.100 315.600 H 15.100 Z" stroke="rgb(0,0,0)" stroke-width="0.20" />
</g>
<g id="p-2" style="fill:none;stroke-linecap:round;stroke-linejoin:round;">
  <path d="M 117.800 315.600 H 127.800 C 127.855 315.600 127.900 315.555 127.900 315.500 V 310.600 C 127.900 310.500 127.800 310.600 127.900 310.600 H 137.700 C 137.800 310.600 137.700 310.500 137.700 310.600 V 315.500 C 137.700 315.555 137.745 315.600 137.800 315.600 H 147.800 C 147.855 315.600 147.900 315.555 147.900 315.500 V 310.600 C 147.900 310.500 147.800 310.600 147.900 310.600 H 157.700 C 157.800 310.600 157.700 310.500 157.700 310.600 V 315.500 C 157.700 315.555 157.745 315.600 157.800 315.600 H 167.800 C 167.855 315.600 167.900 315.555 167.900 315.500 V 310.600 C 167.900 310.500 167.800 310.600 167.900 310.600 H 177.700 C 177.800 310.600 177.700 310.500 177.700 310.600 V 315.500 C 177.700 315.555 177.745 315.600 177.800 315.600 H 187.800 C 187.855 315.600 187.900 315.555 187.900 315.500 V 310.600 C 187.900 310.500 187.800 310.600 187.900 310.600 H 197.700 C 197.800 310.600 197.700 310.500 197.700 310.600 V 315.500 C 197.700 315.555 197.745 315.600 197.800 315.600 H 207.800 C 207.855 315.600 207.900 315.555 207.900 315.500 V 310.500 V 300.600 C 207.900 300.500 207.800 300.600 207.900 300.600 H 212.800 C 212.855 300.600 212.900 300.555 212.900 300.500 V 290.500 C 212.900 290.445 212.855 290.400 212.800 290.400 H 207.900 C 207.800 290.400 207.900 290.500 207.900 290.400 V 280.600 C 207.900 280.500 207.800 280.600 207.900 280.600 H 212.800 C 212.855 280.600 212.900 280.555 212.900 280.500 V 270.500 C 212.900 270.445 212.855 270.400 212.800 270.400 H 207.900 C 207.800 270.400 207.900 270.500 207.900 270.400 V 260.600 C 207.900 260.500 207.800 260.600 207.900 260.600 H 212.800 C 212.855 260.600 212.900 260.555 212.900 260.500 V 250.500 C 212.900 250.445 212.855 250.400 212.800 250.400 H 207.900 C 207.800 250.400 207.900 250.500 207.900 250.400 V 240.600 C 207.900 240.500 207.800 240.600 207.900 240.600 H 212.800 C 212.855 240.600 212.900 240.555 212.900 240.500 V 230.500 C 212.900 230.445 212.855 230.400 212.800 230.400 H 207.900 C 207.800 230.400 207.900 230.500 207.900 230.400 V 220.500 V 215.500 C 207.900 215.445 207.855 215.400 207.800 215.400 H 197.800 C 197.745 215.400 197.700 215.445 197.700 215.500 V 220.400 C 197.700 220.500 197.800 220.400 197.700 220.400 H 187.900 C 187.800 220.400 187.900 220.500 187.900 220.400 V 215.500 C 187.900 215.445 187.855 215.400 187.800 215.400 H 177.800 C 177.745 215.400 177.700 215.445 177.700 215.500 V 220.400 C 177.700 220.500 177.800 220.400 177.700 220.400 H 167.900 C 167.800 220.400 167.900 220.500 167.900 220.400 V 215.500 C 167.900 215.445 167.855 215.400 167.800 215.400 H 157.800 C 157.745 215.400 157.700 215.445 157.700 215.500 V 220.400 C 157.700 220.500 157.800 220.400 157.700 220.400 H 147.900 C 147.800 220.400 147.900 220.500 147.900 220.400 V 215.500 C 147.900 215.445 147.855 215.400 147.800 215.400 H 137.800 C 137.745 215.400 137.700 215.445 137.700 215.500 V 220.400 C 137.700 220.500 137.800 220.400 137.700 220.400 H 127.900 C 127.800 220.400 127.900 220.500 127.900 220.400 V 215.500 C 127.900 215.445 127.855 215.400 127.800 215.400 H 117.800 C 117.745 215.400 117.700 215.445 117.700 215.500 V 220.500 V 230.400 C 117.700 230.500 117.800 230.400 117.700 230.400 H 112.800 C 112.745 230.400 112.700 230.445 112.700 230.500 V 240.500 C 112.700 240.555 112.745 240.600 112.800 240.600 H 117.700 C 117.800 240.600 117.700 240.500 117.700 240.600 V 250.400 C 117.700 250.500 117.800 250.400 117.700 250.400 H 112.800 C 112.745 250.400 112.700 250.445 112.700 250.500 V 260.500 C 112.700 260.555 112.745 260.600 112.800 260.600 H 117.700 C 117.800 260.600 117.700 260.500 117.700 260.600 V 270.400 C 117.700 270.500 117.800 270.400 117.700 270.400 H 112.800 C 112.745 270.400 112.700 270.445 112.700 270.500 V 280.500 C 112.700 280.555 112.745 280.600 112.800 280.600 H 117.700 C 117.800 280.600 117.700 280.500 117.700 280.600 V 290.400 C 117.700 290.500 117.800 290.400 117.700 290.400 H 112.800 C 112.745 290.400 112.700 290.445 112.700 290.500 V 300.500 C 112.700 300.555 112.745 300.600 112.800 300.600 H 117.700 C 117.800 300.600 117.700 300.500 117.700 300.600 V 310.500 V 315.500 C 117.700 315.555 117.745 315.600 117.800 315.600 Z" stroke="rgb(0,0,0)" stroke-width="0.20" />
</g>
<g id="p-3" style="fill:none;stroke-linecap:round;stroke-linejoin:round;">
  <path d="M 117.800 212.900 H 127.800 C 127.855 212.900 127.900 212.855 127.900 212.800 V 207.900 C 127.900 207.800 127.800 207.900 127.900 207.900 H 137.700 C 137.800 207.900 137.700 207.800 137.700 207.900 V 212.800 C 137.700 212.855 137.745 212.900 137.800 212.900 H 147.800 C 147.855 212.900 147.900 212.855 147.900 212.800 V 207.900 C 147.900 207.800 147.800 207.900 147.900 207.900 H 157.700 C 157.800 207.900 157.700 207.800 157.700 207.900 V 212.800 C 157.700 212.855 157.745 212.900 157.800 212.900 H 167.800 C 167.855 212.900 167.900 212.855 167.900 212.800 V 207.900 C 167.900 207.800 167.800 207.900 167.900 207.900 H 177.700 C 177.800 207.900 177.700 207.800 177.700 207.900 V 212.800 C 177.700 212.855 177.745 212.900 177.800 212.900 H 187.800 C 187.855 212.900 187.900 212.855 187.900 212.800 V 207.900 C 187.900 207.800 187.800 207.900 187.900 207.900 H 197.700 C 197.800 207.900 197.700 207.800 197.700 207.900 V 212.800 C 197.700 212.855 197.745 212.900 197.800 212.900 H 207.800 C 207.855 212.900 207.900 212.855 207.900 212.800 V 207.800 V 197.900 C 207.900 197.800 207.800 197.900 207.900 197.900 H 212.800 C 212.855 197.900 212.900 197.855 212.900 197.800 V 187.800 C 212.900 187.745 212.855 187.700 212.800 187.700 H 207.900 C 207.800 187.700 207.900 187.800 207.900 187.700 V 177.900 C 207.900 177.800 207.800 177.900 207.900 177.900 H 212.800 C 212.855 177.900 212.900 177.855 212.900 177.800 V 167.800 C 212.900 167.745 212.855 167.700 212.800 167.700 H 207.900 C 207.800 167.700 207.900 167.800 207.900 167.700 V 157.900 C 207.900 157.800 207.800 157.900 207.900 157.900 H 212.800 C 212.855 157.900 212.900 157.855 212.900 157.800 V 147.800 C 212.900 147.745 212.855 147.700 212.800 147.700 H 207.900 C 207.800 147.700 207.900 147.800 207.900 147.700 V 137.900 C 207.900 137.800 207.800 137.900 207.900 137.900 H 212.800 C 212.855 137.900 212.900 137.855 212.900 137.800 V 127.800 C 212.900 127.745 212.855 127.700 212.800 127.700 H 207.900 C 207.800 127.700 207.900 127.800 207.900 127.700 V 117.800 V 112.800 C 207.900 112.745 207.855 112.700 207.800 112.700 H 197.800 C 197.745 112.700 197.700 112.745 197.700 112.800 V 117.700 C 197.700 117.800 197.800 117.700 197.700 117.700 H 187.900 C 187.800 117.700 187.900 117.800 187.900 117.700 V 112.800 C 187.900 112.745 187.855 112.700 187.800 112.700 H 177.800 C 177.745 112.700 177.700 112.745 177.700 112.800 V 117.700 C 177.700 117.800 177.800 117.700 177.700 117.700 H 167.900 C 167.800 117.700 167.900 117.800 167.900 117.700 V 112.800 C 167.900 112.745 167.855 112.700 167.800 112.700 H 157.800 C 157.745 112.700 157.700 112.745 157.700 112.800 V 117.700 C 157.700 117.800 157.800 117.700 157.700 117.700 H 147.900 C 147.800 117.700 147.900 117.800 147.900 117.700 V 112.800 C 147.900 112.745 147.855 112.700 147.800 112.700 H 137.800 C 137.745 112.700 137.700 112.745 137.700 112.800 V 117.700 C 137.700 117.800 137.800 117.700 137.700 117.700 H 127.900 C 127.800 117.700 127.900 117.800 127.900 117.700 V 112.800 C 127.900 112.745 127.855 112.700 127.800 112.700 H 117.800 C 117.745 112.700 117.700 112.745 117.700 112.800 V 117.800 V 127.700 C 117.700 127.800 117.800 127.700 117.700 127.700 H 112.800 C 112.745 127.700 112.700 127.745 112.700 127.800 V 137.800 C 112.700 137.855 112.745 137.900 112.800 137.900 H 117.700 C 117.800 137.900 117.700 137.800 117.700 137.900 V 147.700 C 117.700 147.800 117.800 147.700 117.700 147.700 H 112.800 C 112.745 147.700 112.700 147.745 112.700 147.800 V 157.800 C 112.700 157.855 112.745 157.900 112.800 157.900 H 117.700 C 117.800 157.900 117.700 157.800 117.700 157.900 V 167.700 C 117.700 167.800 117.800 167.700 117.700 167.700 H 112.800 C 112.745 167.700 112.700 167.745 112.700 167.800 V 177.800 C 112.700 177.855 112.745 177.900 112.800 177.900 H 117.700 C 117.800 177.900 117.700 177.800 117.700 177.900 V 187.700 C 117.700 187.800 117.800 187.700 117.700 187.700 H 112.800 C 112.745 187.700 112.700 187.745 112.700 187.800 V 197.800 C 112.700 197.855 112.745 197.900 112.800 197.900 H 117.700 C 117.800 197.900 117.700 197.800 117.700 197.900 V 207.800 V 212.800 C 117.700 212.855 117.745 212.900 117.800 212.900 Z" stroke="rgb(0,0,0)" stroke-width="0.20" />
</g>
<g id="p-4" style="fill:none;stroke-linecap:round;stroke-linejoin:round;">
  <path d="M 15.100 212.900 H 25.100 C 25.155 212.900 25.200 212.855 25.200 212.800 V 207.900 C 25.200 207.800 25.100 207.900 25.200 207.900 H 35.000 C 35.100 207.900 35.000 207.800 35.000 207.900 V 212.800 C 35.000 212.855 35.045 212.900 35.100 212.900 H 45.100 C 45.155 212.900 45.200 212.855 45.200 212.800 V 207.900 C 45.200 207.800 45.100 207.900 45.200 207.900 H 55.000 C 55.100 207.900 55.000 207.800 55.000 207.900 V 212.800 C 55.000 212.855 55.045 212.900 55.100 212.900 H 65.100 C 65.155 212.900 65.200 212.855 65.200 212.800 V 207.900 C 65.200 207.800 65.100 207.900 65.200 207.900 H 75.000 C 75.100 207.900 75.000 207.800 75.000 207.900 V 212.800 C 75.000 212.855 75.045 212.900 75.100 212.900 H 85.100 C 85.155 212.900 85.200 212.855 85.200 212.800 V 207.900 C 85.200 207.800 85.100 207.900 85.200 207.900 H 95.000 C 95.100 207.900 95.000 207.800 95.000 207.900 V 212.800 C 95.000 212.855 95.045 212.900 95.100 212.900 H 105.100 H 110.100 C 110.155 212.900 110.200 212.855 110.200 212.800 V 207.800 V 197.800 C 110.200 197.745 110.155 197.700 110.100 197.700 H 105.200 C 105.100 197.700 105.200 197.800 105.200 197.700 V 187.900 C 105.200 187.800 105.100 187.900 105.200 187.900 H 110.100 C 110.155 187.900 110.200 187.855 110.200 187.800 V 177.800 C 110.200 177.745 110.155 177.700 110.100 177.700 H 105.200 C 105.100 177.700 105.200 177.800 105.200 177.700 V 167.900 C 105.200 167.800 105.100 167.900 105.200 167.900 H 110.100 C 110.155 167.900 110.200 167.855 110.200 167.800 V 157.800 C 110.200 157.745 110.155 157.700 110.100 157.700 H 105.200 C 105.100 157.700 105.200 157.800 105.200 157.700 V 147.900 C 105.200 147.800 105.100 147.900 105.200 147.900 H 110.100 C 110.155 147.900 110.200 147.855 110.200 147.800 V 137.800 C 110.200 137.745 110.155 137.700 110.100 137.700 H 105.200 C 105.100 137.700 105.200 137.800 105.200 137.700 V 127.900 C 105.200 127.800 105.100 127.900 105.200 127.900 H 110.100 C 110.155 127.900 110.200 127.855 110.200 127.800 V 117.800 V 112.800 C 110.200 112.745 110.155 112.700 110.100 112.700 H 105.100 H 95.100 C 95.045 112.700 95.000 112.745 95.000 112.800 V 117.700 C 95.000 117.800 95.100 117.700 95.000 117.700 H 85.200 C 85.100 117.700 85.200 117.800 85.200 117.700 V 112.800 C 85.200 112.745 85.155 112.700 85.100 112.700 H 75.100 C 75.045 112.700 75.000 112.745 75.000 112.800 V 117.700 C 75.000 117.800 75.100 117.700 75.000 117.700 H 65.200 C 65.100 117.700 65.200 117.800 65.200 117.700 V 112.800 C 65.200 112.745 65.155 112.700 65.100 112.700 H 55.100 C 55.045 112.700 55.000 112.745 55.000 112.800 V 117.700 C 55.000 117.800 55.100 117.700 55.000 117.700 H 45.200 C 45.100 117.700 45.200 117.800 45.200 117.700 V 112.800 C 45.200 112.745 45.155 112.700 45.100 112.700 H 35.100 C 35.045 112.700 35.000 112.745 35.000 112.800 V 117.700 C 35.000 117.800 35.100 117.700 35.000 117.700 H 25.200 C 25.100 117.700 25.200 117.800 25.200 117.700 V 112.800 C 25.200 112.745 25.155 112.700 25.100 112.700 H 15.100 H 10.100 C 10.045 112.700 10.000 112.745 10.000 112.800 V 117.800 V 127.800 C 10.000 127.855 10.045 127.900 10.100 127.900 H 15.000 C 15.100 127.900 15.000 127.800 15.000 127.900 V 137.700 C 15.000 137.800 15.100 137.700 15.000 137.700 H 10.100 C 10.045 137.700 10.000 137.745 10.000 137.800 V 147.800 C 10.000 147.855 10.045 147.900 10.100 147.900 H 15.000 C 15.100 147.900 15.000 147.800 15.000 147.900 V 157.700 C 15.000 157.800 15.100 157.700 15.000 157.700 H 10.100 C 10.045 157.700 10.000 157.745 10.000 157.800 V 167.800 C 10.000 167.855 10.045 167.900 10.100 167.900 H 15.000 C 15.100 167.900 15.000 167.800 15.000 167.900 V 177.700 C 15.000 177.800 15.100 177.700 15.000 177.700 H 10.100 C 10.045 177.700 10.000 177.745 10.000 177.800 V 187.800 C 10.000 187.855 10.045 187.900 10.100 187.900 H 15.000 C 15.100 187.900 15.000 187.800 15.000 187.900 V 197.700 C 15.000 197.800 15.100 197.700 15.000 197.700 H 10.100 C 10.045 197.700 10.000 197.745 10.000 197.800 V 207.800 V 212.800 C 10.000 212.855 10.045 212.900 10.100 212.900 H 15.100 Z" stroke="rgb(0,0,0)" stroke-width="0.20" />
</g>
<g id="p-5" style="fill:none;stroke-linecap:round;stroke-linejoin:round;">
  <path d="M 15.100 105.200 H 25.000 C 25.100 105.200 25.000 105.100 25.000 105.200 V 110.100 C 25.000 110.155 25.045 110.200 25.100 110.200 H 35.100 C 35.155 110.200 35.200 110.155 35.200 110.100 V 105.200 C 35.200 105.100 35.100 105.200 35.200 105.200 H 45.000 C 45.100 105.200 45.000 105.100 45.000 105.200 V 110.100 C 45.000 110.155 45.045 110.200 45.100 110.200 H 55.100 C 55.155 110.200 55.200 110.155 55.200 110.100 V 105.200 C 55.200 105.100 55.100 105.200 55.200 105.200 H 65.000 C 65.100 105.200 65.000 105.100 65.000 105.200 V 110.100 C 65.000 110.155 65.045 110.200 65.100 110.200 H 75.100 C 75.155 110.200 75.200 110.155 75.200 110.100 V 105.200 C 75.200 105.100 75.100 105.200 75.200 105.200 H 85.000 C 85.100 105.200 85.000 105.100 85.000 105.200 V 110.100 C 85.000 110.155 85.045 110.200 85.100 110.200 H 95.100 C 95.155 110.200 95.200 110.155 95.200 110.100 V 105.200 C 95.200 105.100 95.100 105.200 95.200 105.200 H 105.100 C 105.155 105.200 105.200 105.155 105.200 105.100 V 95.200 C 105.200 95.100 105.100 95.200 105.200 95.200 H 110.100 C 110.155 95.200 110.200 95.155 110.200 95.100 V 85.100 C 110.200 85.045 110.155 85.000 110.100 85.000 H 105.200 C 105.100 85.000 105.200 85.100 105.200 85.000 V 75.200 C 105.200 75.100 105.100 75.200 105.200 75.200 H 110.100 C 110.155 75.200 110.200 75.155 110.200 75.100 V 65.100 C 110.200 65.045 110.155 65.000 110.100 65.000 H 105.200 C 105.100 65.000 105.200 65.100 105.200 65.000 V 55.200 C 105.200 55.100 105.100 55.200 105.200 55.200 H 110.100 C 110.155 55.200 110.200 55.155 110.200 55.100 V 45.100 C 110.200 45.045 110.155 45.000 110.100 45.000 H 105.200 C 105.100 45.000 105.200 45.100 105.200 45.000 V 35.200 C 105.200 35.100 105.100 35.200 105.200 35.200 H 110.100 C 110.155 35.200 110.200 35.155 110.200 35.100 V 25.100 C 110.200 25.045 110.155 25.000 110.100 25.000 H 105.200 C 105.100 25.000 105.200 25.100 105.200 25.000 V 15.100 C 105.200 15.045 105.155 15.000 105.100 15.000 H 95.200 C 95.100 15.000 95.200 15.100 95.200 15.000 V 10.100 C 95.200 10.045 95.155 10.000 95.100 10.000 H 85.100 C 85.045 10.000 85.000 10.045 85.000 10.100 V 15.000 C 85.000 15.100 85.100 15.000 85.000 15.000 H 75.200 C 75.100 15.000 75.200 15.100 75.200 15.000 V 10.100 C 75.200 10.045 75.155 10.000 75.100 10.000 H 65.100 C 65.045 10.000 65.000 10.045 65.000 10.100 V 15.000 C 65.000 15.100 65.100 15.000 65.000 15.000 H 55.200 C 55.100 15.000 55.200 15.100 55.200 15.000 V 10.100 C 55.200 10.045 55.155 10.000 55.100 10.000 H 45.100 C 45.045 10.000 45.000 10.045 45.000 10.100 V 15.000 C 45.000 15.100 45.100 15.000 45.000 15.000 H 35.200 C 35.100 15.000 35.200 15.100 35.200 15.000 V 10.100 C 35.200 10.045 35.155 10.000 35.100 10.000 H 25.100 C 25.045 10.000 25.000 10.045 25.000 10.100 V 15.000 C 25.000 15.100 25.100 15.000 25.000 15.000 H 15.100 C 15.045 15.000 15.000 15.045 15.000 15.100 V 25.000 C 15.000 25.100 15.100 25.000 15.000 25.000 H 10.100 C 10.045 25.000 10.000 25.045 10.000 25.100 V 35.100 C 10.000 35.155 10.045 35.200 10.100 35.200 H 15.000 C 15.100 35.200 15.000 35.100 15.000 35.200 V 45.000 C 15.000 45.100 15.100 45.000 15.000 45.000 H 10.100 C 10.045 45.000 10.000 45.045 10.000 45.100 V 55.100 C 10.000 55.155 10.045 55.200 10.100 55.200 H 15.000 C 15.100 55.200 15.000 55.100 15.000 55.200 V 65.000 C 15.000 65.100 15.100 65.000 15.000 65.000 H 10.100 C 10.045 65.000 10.000 65.045 10.000 65.100 V 75.100 C 10.000 75.155 10.045 75.200 10.100 75.200 H 15.000 C 15.100 75.200 15.000 75.100 15.000 75.200 V 85.000 C 15.000 85.100 15.100 85.000 15.000 85.000 H 10.100 C 10.045 85.000 10.000 85.045 10.000 85.100 V 95.100 C 10.000 95.155 10.045 95.200 10.100 95.200 H 15.000 C 15.100 95.200 15.000 95.100 15.000 95.200 V 105.100 C 15.000 105.155 15.045 105.200 15.100 105.200 Z" stroke="rgb(0,0,0)" stroke-width="0.20" />
</g>
<g id="p-6" style="fill:none;stroke-linecap:round;stroke-linejoin:round;">
  <path d="M 117.800 105.200 H 127.700 C 127.800 105.200 127.700 105.100 127.700 105.200 V 110.100 C 127.700 110.155 127.745 110.200 127.800 110.200 H 137.800 C 137.855 110.200 137.900 110.155 137.900 110.100 V 105.200 C 137.900 105.100 137.800 105.200 137.900 105.200 H 147.700 C 147.800 105.200 147.700 105.100 147.700 105.200 V 110.100 C 147.700 110.155 147.745 110.200 147.800 110.200 H 157.800 C 157.855 110.200 157.900 110.155 157.900 110.100 V 105.200 C 157.900 105.100 157.800 105.200 157.900 105.200 H 167.700 C 167.800 105.200 167.700 105.100 167.700 105.200 V 110.100 C 167.700 110.155 167.745 110.200 167.800 110.200 H 177.800 C 177.855 110.200 177.900 110.155 177.900 110.100 V 105.200 C 177.900 105.100 177.800 105.200 177.900 105.200 H 187.700 C 187.800 105.200 187.700 105.100 187.700 105.200 V 110.100 C 187.700 110.155 187.745 110.200 187.800 110.200 H 197.800 C 197.855 110.200 197.900 110.155 197.900 110.100 V 105.200 C 197.900 105.100 197.800 105.200 197.900 105.200 H 207.800 C 207.855 105.200 207.900 105.155 207.900 105.100 V 95.200 C 207.900 95.100 207.800 95.200 207.900 95.200 H 212.800 C 212.855 95.200 212.900 95.155 212.900 95.100 V 85.100 C 212.900 85.045 212.855 85.000 212.800 85.000 H 207.900 C 207.800 85.000 207.900 85.100 207.900 85.000 V 75.200 C 207.900 75.100 207.800 75.200 207.900 75.200 H 212.800 C 212.855 75.200 212.900 75.155 212.900 75.100 V 65.100 C 212.900 65.045 212.855 65.000 212.800 65.000 H 207.900 C 207.800 65.000 207.900 65.100 207.900 65.000 V 55.200 C 207.900 55.100 207.800 55.200 207.900 55.200 H 212.800 C 212.855 55.200 212.900 55.155 212.900 55.100 V 45.100 C 212.900 45.045 212.855 45.000 212.800 45.000 H 207.900 C 207.800 45.000 207.900 45.100 207.900 45.000 V 35.200 C 207.900 35.100 207.800 35.200 207.900 35.200 H 212.800 C 212.855 35.200 212.900 35.155 212.900 35.100 V 25.100 C 212.900 25.045 212.855 25.000 212.800 25.000 H 207.900 C 207.800 25.000 207.900 25.100 207.900 25.000 V 15.100 C 207.900 15.045 207.855 15.000 207.800 15.000 H 197.900 C 197.800 15.000 197.900 15.100 197.900 15.000 V 10.100 C 197.900 10.045 197.855 10.000 197.800 10.000 H 187.800 C 187.745 10.000 187.700 10.045 187.700 10.100 V 15.000 C 187.700 15.100 187.800 15.000 187.700 15.000 H 177.900 C 177.800 15.000 177.900 15.100 177.900 15.000 V 10.100 C 177.900 10.045 177.855 10.000 177.800 10.000 H 167.800 C 167.745 10.000 167.700 10.045 167.700 10.100 V 15.000 C 167.700 15.100 167.800 15.000 167.700 15.000 H 157.900 C 157.800 15.000 157.900 15.100 157.900 15.000 V 10.100 C 157.900 10.045 157.855 10.000 157.800 10.000 H 147.800 C 147.745 10.000 147.700 10.045 147.700 10.100 V 15.000 C 147.700 15.100 147.800 15.000 147.700 15.000 H 137.900 C 137.800 15.000 137.900 15.100 137.900 15.000 V 10.100 C 137.900 10.045 137.855 10.000 137.800 10.000 H 127.800 C 127.745 10.000 127.700 10.045 127.700 10.100 V 15.000 C 127.700 15.100 127.800 15.000 127.700 15.000 H 117.800 C 117.745 15.000 117.700 15.045 117.700 15.100 V 25.000 C 117.700 25.100 117.800 25.000 117.700 25.000 H 112.800 C 112.745 25.000 112.700 25.045 112.700 25.100 V 35.100 C 112.700 35.155 112.745 35.200 112.800 35.200 H 117.700 C 117.800 35.200 117.700 35.100 117.700 35.200 V 45.000 C 117.700 45.100 117.800 45.000 117.700 45.000 H 112.800 C 112.745 45.000 112.700 45.045 112.700 45.100 V 55.100 C 112.700 55.155 112.745 55.200 112.800 55.200 H 117.700 C 117.800 55.200 117.700 55.100 117.700 55.200 V 65.000 C 117.700 65.100 117.800 65.000 117.700 65.000 H 112.800 C 112.745 65.000 112.700 65.045 112.700 65.100 V 75.100 C 112.700 75.155 112.745 75.200 112.800 75.200 H 117.700 C 117.800 75.200 117.700 75.100 117.700 75.200 V 85.000 C 117.700 85.100 117.800 85.000 117.700 85.000 H 112.800 C 112.745 85.000 112.700 85.045 112.700 85.100 V 95.100 C 112.700 95.155 112.745 95.200 112.800 95.200 H 117.700 C 117.800 95.200 117.700 95.100 117.700 95.200 V 105.100 C 117.700 105.155 117.745 105.200 117.800 105.200 Z" stroke="rgb(0,0,0)" stroke-width="0.20" />
</g>
</svg>